<svg width="1080" height="1718" viewBox="0 0 1080 1718" fill="none" xmlns="http://www.w3.org/2000/svg">
<path d="M565.939 0C719.214 0 844.192 40.1182 938.515 125.074C1032.84 207.67 1080 320.945 1080 464.898C1080 582.893 1049.34 679.648 992.751 755.165C971.528 778.764 903.144 842.481 789.956 941.596C747.511 976.995 716.856 1017.11 695.633 1059.59C672.052 1106.79 660.262 1156.35 660.262 1212.98V1246.02H389.083V1212.98C389.083 1123.31 403.231 1045.43 436.245 981.714C466.9 917.997 558.865 818.882 712.14 682.008L740.437 648.97C782.882 597.052 804.105 540.415 804.105 481.418C804.105 403.541 780.524 342.184 738.079 297.346C693.275 252.508 629.607 231.269 549.432 231.269C445.677 231.269 372.576 261.948 327.773 328.025C287.686 382.302 268.821 460.179 268.821 559.294H0C0 384.662 49.5196 247.788 153.275 148.673C254.672 49.5577 391.441 0 565.939 0ZM523.493 1361.66C575.371 1361.66 620.175 1378.18 655.546 1411.21C688.559 1444.25 707.424 1486.73 707.424 1538.65C707.424 1590.57 688.559 1635.4 653.188 1668.44C617.817 1701.48 575.371 1718 523.493 1718C471.616 1718 429.17 1699.12 393.799 1666.08C358.428 1633.04 341.921 1590.57 341.921 1538.65C341.921 1486.73 358.428 1444.25 393.799 1411.21C429.17 1378.18 471.616 1361.66 523.493 1361.66Z" fill="url(#paint0_radial_643_52)"/>
<defs>
<radialGradient id="paint0_radial_643_52" cx="0" cy="0" r="1" gradientUnits="userSpaceOnUse" gradientTransform="translate(728.5 -5.62953e-05) rotate(96.2615) scale(1728.31 1086.48)">
<stop stop-color="#FF8912"/>
<stop offset="1" stop-color="#FF9D3B" stop-opacity="0.59"/>
</radialGradient>
</defs>
</svg>
